<svg xmlns="http://www.w3.org/2000/svg" viewBox="0 0 116.22 116.22"><defs><style>.a{fill:#094183;}.b{fill:#fff;}</style></defs><title>PRIMARY_A_Vertical_Housed_RGB</title><rect class="a" width="116.22" height="116.22"/><path class="b" d="M13,77.25s-0.19.81-.19,0.91a0.12,0.12,0,0,0,.11.14A0.16,0.16,0,0,0,13,78.18l0.14-.25a0.85,0.85,0,0,1,.8-0.24l1.17,0v3.47c0,0.78,0,1.46,0,1.81a0.4,0.4,0,0,1-.19.41l-0.24,0a0.12,0.12,0,0,0-.13.11c0,0.13.15,0.13,0.2,0.13l0.68,0h0.23l0.93,0c0.18,0,.2-0.09.2-0.13a0.12,0.12,0,0,0-.13-0.11l-0.37,0c-0.2,0-.25-0.16-0.27-0.4s0-1,0-1.81V77.67l1,0c0.81,0,.94.21,1,0.41v0.09a0.17,0.17,0,0,0,.13.2s0.12,0,.12-0.17V77.95l0-.65s0-.17-0.11-0.17l-0.1,0a3.37,3.37,0,0,1-.73.07H14.12l-0.65,0-0.27-.07-0.11,0A0.21,0.21,0,0,0,13,77.25Z" transform="translate(0 0)"/><path class="b" d="M24.21,77.21H24l-0.84,0s-0.2,0-.2.13a0.12,0.12,0,0,0,.13.11l0.27,0a0.35,0.35,0,0,1,.31.42l0,1.8v0.18H20.13V79.68l0-1.8c0-.28.08-0.39,0.26-0.42h0l0.2,0a0.12,0.12,0,0,0,.13-0.11c0-.09-0.07-0.13-0.2-0.13l-0.68,0H19.62l-0.84,0c-0.13,0-.2,0-0.2.13a0.12,0.12,0,0,0,.13.11l0.27,0a0.35,0.35,0,0,1,.31.42l0,1.8v1.47c0,0.78,0,1.46,0,1.81a0.4,0.4,0,0,1-.19.41l-0.24,0a0.12,0.12,0,0,0-.13.11c0,0.13.15,0.13,0.2,0.13l0.68,0h0.24l0.93,0c0.18,0,.2-0.09.2-0.13a0.12,0.12,0,0,0-.13-0.11l-0.37,0c-0.2,0-.25-0.16-0.27-0.4s0-1,0-1.81V80.27h3.53v0.87c0,0.78,0,1.46,0,1.81a0.4,0.4,0,0,1-.19.41l-0.24,0a0.12,0.12,0,0,0-.13.11c0,0.13.15,0.13,0.2,0.13l0.68,0h0.23l0.93,0c0.18,0,.2-0.09.2-0.13a0.12,0.12,0,0,0-.13-0.11l-0.37,0c-0.2,0-.25-0.16-0.27-0.4s0-1,0-1.81V79.68l0-1.8c0-.29.08-0.39,0.26-0.42h0l0.2,0a0.12,0.12,0,0,0,.13-0.11c0-.13-0.15-0.13-0.2-0.13Z" transform="translate(0 0)"/><path class="b" d="M29.55,77.15l0,0-0.35,0h-2l-0.83,0s-0.2,0-.2.13a0.12,0.12,0,0,0,.13.11l0.27,0a0.35,0.35,0,0,1,.31.42l0,1.8v1.47c0,0.78,0,1.46,0,1.81a0.4,0.4,0,0,1-.19.41l-0.24,0a0.12,0.12,0,0,0-.13.11,0.16,0.16,0,0,0,.2.13l0.68,0h0.46l1.75,0c0.33,0,.44,0,0.51-0.26a8.16,8.16,0,0,0,.11-0.83c0-.06,0-0.19-0.12-0.19a0.17,0.17,0,0,0-.14.18,0.62,0.62,0,0,1-.34.55,2.35,2.35,0,0,1-.78.09c-0.81,0-.88-0.1-0.91-0.62V80.41l1.18,0a0.35,0.35,0,0,1,.38.25l0,0.26a0.13,0.13,0,0,0,.12.14c0.12,0,.12-0.15.12-0.22l0-.53,0.07-.47a0.11,0.11,0,0,0-.1-0.13l-0.17.12A0.51,0.51,0,0,1,29,80l-1.32,0V77.66c0.1,0,1,0,1.12,0,0.46,0.05.5,0.15,0.54,0.25l0,0.28a0.13,0.13,0,1,0,.25,0l0-.43V77.66l0.05-.28,0-.11c0-.13-0.07-0.14-0.1-0.14Z" transform="translate(0 0)"/><path class="b" d="M39.09,77.21H38.83l-0.77,0a0.16,0.16,0,0,0-.2.13,0.12,0.12,0,0,0,.13.11l0.27,0a0.35,0.35,0,0,1,.31.42l0,1.8v1a3.1,3.1,0,0,1-.47,2,1.69,1.69,0,0,1-1.26.58,1.56,1.56,0,0,1-1.22-.44,2.49,2.49,0,0,1-.61-2V79.68l0-1.8c0-.29.08-0.39,0.26-0.42l0.2,0a0.12,0.12,0,0,0,.13-0.11,0.16,0.16,0,0,0-.2-0.13l-0.62,0H34.43l-0.79,0a0.16,0.16,0,0,0-.2.13,0.12,0.12,0,0,0,.13.11l0.27,0a0.35,0.35,0,0,1,.31.42l0,1.8V80.9a2.8,2.8,0,0,0,.75,2.25,2.61,2.61,0,0,0,1.77.61,2.52,2.52,0,0,0,1.77-.64,3.35,3.35,0,0,0,.79-2.55v-0.9l0-1.8c0-.29.08-0.39,0.26-0.42l0.2,0a0.12,0.12,0,0,0,.13-0.11,0.16,0.16,0,0,0-.2-0.13Z" transform="translate(0 0)"/><path class="b" d="M41.33,77.55v4.79c0,0.75,0,1-.21,1l-0.32,0a0.12,0.12,0,0,0-.13.11,0.16,0.16,0,0,0,.2.13l0.67,0h0.26l0.76,0c0.06,0,.21,0,0.21-0.13a0.12,0.12,0,0,0-.13-0.11l-0.4,0C42.06,83.29,42,83.14,42,82.43l-0.1-3.83,2.07,2.27c0.91,1,2.1,2.19,2.19,2.27a1.56,1.56,0,0,0,.65.55c0.13,0,.14-0.1.14-0.66l0-4.9c0-.52,0-0.64.26-0.68l0.19,0a0.14,0.14,0,0,0,.16-0.12c0-.12-0.14-0.12-0.21-0.12l-0.56,0H46.41l-0.69,0c-0.08,0-.23,0-0.23.12a0.12,0.12,0,0,0,.13.12l0.4,0c0.2,0.05.27,0.17,0.28,0.73l0.09,4.08-0.62-.68-1.27-1.38-2.73-2.95a0.5,0.5,0,0,0-.27-0.21C41.34,77.07,41.33,77.26,41.33,77.55Z" transform="translate(0 0)"/><path class="b" d="M49.9,77.21H49.64l-0.72,0a0.16,0.16,0,0,0-.2.13,0.12,0.12,0,0,0,.13.11l0.25,0c0.13,0,.22.11,0.24,0.41l0,1.8v1.47c0,0.78,0,1.46,0,1.81s-0.07.38-.19,0.41l-0.24,0a0.12,0.12,0,0,0-.13.11c0,0.13.15,0.13,0.2,0.13l0.68,0h0.23l0.93,0c0.18,0,.2-0.09.2-0.13a0.12,0.12,0,0,0-.13-0.11l-0.37,0c-0.2,0-.25-0.16-0.27-0.4s0-1,0-1.81V79.68l0-1.8c0-.28.08-0.39,0.26-0.42l0.2,0a0.12,0.12,0,0,0,.13-0.11c0-.13-0.15-0.13-0.2-0.13Z" transform="translate(0 0)"/><path class="b" d="M57.38,77.21H57.07l-0.62,0c-0.09,0-.25,0-0.25.13s0,0.11.16,0.11l0.3,0a0.15,0.15,0,0,1,.07.13l-0.07.3c-0.17.55-1.21,3.26-1.72,4.49l-1.55-4.13a3.33,3.33,0,0,1-.22-0.67h0a0.11,0.11,0,0,1,.07-0.11l0.29,0a0.12,0.12,0,0,0,.15-0.12c0-.12-0.18-0.12-0.29-0.12l-0.61,0H52.38l-0.77,0c-0.12,0-.28,0-0.28.12a0.12,0.12,0,0,0,.13.12l0.3,0a0.75,0.75,0,0,1,.56.61l2.07,5.18c0.16,0.39.2,0.51,0.34,0.51s0.14-.08.26-0.36l0.14-.31,1-2.42,0.5-1.2,0.49-1.19a1.59,1.59,0,0,1,.44-0.76A0.7,0.7,0,0,1,58,77.43c0.14,0,.16-0.08.16-0.12s-0.07-.12-0.21-0.12Z" transform="translate(0 0)"/><path class="b" d="M62,77.15h0l-0.35,0h-2l-0.83,0s-0.2,0-.2.13a0.12,0.12,0,0,0,.13.11l0.27,0a0.35,0.35,0,0,1,.31.42l0,1.8v1.47c0,0.78,0,1.46,0,1.81a0.4,0.4,0,0,1-.19.41l-0.24,0a0.12,0.12,0,0,0-.13.11c0,0.13.15,0.13,0.2,0.13l0.68,0H60l1.75,0c0.33,0,.44,0,0.51-0.26s0.11-.75.11-0.83,0-.19-0.11-0.19a0.17,0.17,0,0,0-.14.18,0.62,0.62,0,0,1-.34.56,2.37,2.37,0,0,1-.78.09c-0.81,0-.88-0.1-0.91-0.62V80.41l1.18,0a0.35,0.35,0,0,1,.38.25l0,0.26a0.12,0.12,0,0,0,.12.14c0.12,0,.12-0.15.12-0.22l0-.53L62,79.88a0.11,0.11,0,0,0-.11-0.13l-0.15.11a0.5,0.5,0,0,1-.37.12l-1.32,0V77.66s1.12,0,1.12,0c0.46,0,.5.15,0.54,0.25l0,0.28a0.14,0.14,0,0,0,.13.17A0.13,0.13,0,0,0,62,78.21l0-.4V77.66l0.07-.4c0-.13-0.07-0.14-0.1-0.14Z" transform="translate(0 0)"/><path class="b" d="M65,80.45a0,0,0,0,1,0,0V77.67a0,0,0,0,1,0,0,2.53,2.53,0,0,1,.54,0,1.39,1.39,0,0,1,1.38,1.61,1.47,1.47,0,0,1-.48,1.23,1,1,0,0,1-.59.15A2.27,2.27,0,0,1,65,80.45ZM64.87,77.2H64.48l-0.83,0a0.16,0.16,0,0,0-.2.13,0.12,0.12,0,0,0,.13.11l0.27,0a0.35,0.35,0,0,1,.31.42l0,1.8v1.47c0,0.78,0,1.46,0,1.81a0.4,0.4,0,0,1-.19.41l-0.24,0a0.12,0.12,0,0,0-.13.11c0,0.13.15,0.13,0.2,0.13l0.75,0h0.13l0.93,0c0.18,0,.2-0.09.2-0.13a0.12,0.12,0,0,0-.13-0.11l-0.37,0c-0.2,0-.25-0.16-0.27-0.4s0-1,0-1.81v-0.2h1l0.07,0,0.29,0.4L67,82.22l0.11,0.15a3.78,3.78,0,0,0,1,1.1,1.75,1.75,0,0,0,.93.17h0.59c0.11,0,.27,0,0.27-0.13a0.13,0.13,0,0,0-.14-0.11l-0.32,0a1.67,1.67,0,0,1-1-.58c-0.44-.47-0.95-1.12-1.54-1.89l-0.16-.21a2.64,2.64,0,0,0,1-1.94,1.54,1.54,0,0,0-.6-1.19,2.64,2.64,0,0,0-1.57-.38Z" transform="translate(0 0)"/><path class="b" d="M70.27,78.64a2.29,2.29,0,0,0,1.11,1.86l0.38,0.31a1.77,1.77,0,0,1,.94,1.46,1.05,1.05,0,0,1-1.13,1,1.1,1.1,0,0,1-1.18-.8l0-.3a0.13,0.13,0,0,0-.12-0.16,0.17,0.17,0,0,0-.13.19v0.08l0,0.81c0,0.22,0,.3.16,0.37h0a2.58,2.58,0,0,0,1.15.23,2.24,2.24,0,0,0,1.3-.36,1.8,1.8,0,0,0,.74-1.44,2.4,2.4,0,0,0-1.25-2l-0.23-.18c-0.8-.66-1-0.92-1-1.36a0.89,0.89,0,0,1,1-.91,1,1,0,0,1,1,.41,1.48,1.48,0,0,1,.1.39,0.15,0.15,0,0,0,.13.17c0.12,0,.12-0.17.12-0.26l0-.82V77.32a0.12,0.12,0,0,0-.15-0.12l-0.28,0a3.28,3.28,0,0,0-.79-0.09A1.6,1.6,0,0,0,70.27,78.64Z" transform="translate(0 0)"/><path class="b" d="M75.88,77.21H75.62l-0.72,0c-0.13,0-.2,0-0.2.13a0.12,0.12,0,0,0,.13.11l0.24,0c0.11,0,.22.09,0.24,0.41l0,1.8v1.47c0,0.78,0,1.46,0,1.81a0.4,0.4,0,0,1-.19.41l-0.24,0a0.12,0.12,0,0,0-.13.11c0,0.13.15,0.13,0.2,0.13l0.69,0h0.23l0.93,0c0.18,0,.19-0.09.19-0.13a0.12,0.12,0,0,0-.13-0.11l-0.37,0c-0.2,0-.25-0.16-0.27-0.4s0-1,0-1.81V79.68l0-1.8c0-.28.08-0.39,0.26-0.42h0l0.2,0a0.12,0.12,0,0,0,.13-0.11c0-.13-0.15-0.13-0.2-0.13Z" transform="translate(0 0)"/><path class="b" d="M77.75,77.27s-0.19.79-.19,0.89a0.12,0.12,0,0,0,.11.14,0.16,0.16,0,0,0,.14-0.12l0.14-.25a0.84,0.84,0,0,1,.8-0.24l1.17,0v3.47c0,0.78,0,1.46,0,1.81a0.4,0.4,0,0,1-.19.41l-0.24,0a0.12,0.12,0,0,0-.13.11c0,0.13.15,0.13,0.2,0.13l0.68,0h0.24l0.93,0c0.17,0,.2-0.08.2-0.13a0.12,0.12,0,0,0-.13-0.11l-0.37,0c-0.2,0-.25-0.16-0.27-0.4s0-1,0-1.81V77.67l1,0c0.81,0,.94.21,1,0.41v0.09c0,0.08,0,.2.13,0.2s0.12,0,.12-0.17V77.95l0-.65s0-.17-0.11-0.17l-0.1,0a3.32,3.32,0,0,1-.73.07H78.92l-0.66,0L78,77.1l-0.1,0A0.22,0.22,0,0,0,77.75,77.27Z" transform="translate(0 0)"/><path class="b" d="M88.63,77.2H88.27l-0.42,0c-0.17,0-.2.07-0.2,0.11a0.18,0.18,0,0,0,.16.14s0.1,0,.1.18a0.76,0.76,0,0,1-.13.39c-0.14.24-1.08,1.85-1.34,2.36-0.28-.46-1.36-2.32-1.48-2.54a0.67,0.67,0,0,1-.1-0.3,0.11,0.11,0,0,1,.07-0.09l0,0a0.14,0.14,0,0,0,.12-0.12c0-.08-0.06-0.12-0.17-0.12l-0.59,0H84l-0.63,0c-0.17,0-.17.1-0.17,0.12a0.13,0.13,0,0,0,.15.12,0.74,0.74,0,0,1,.32.12,2.33,2.33,0,0,1,.55.6c0.3,0.44,1.42,2.28,1.47,2.4a1.7,1.7,0,0,1,.19.85v0.72l0,0.83a0.4,0.4,0,0,1-.21.4l-0.24,0a0.12,0.12,0,0,0-.13.11c0,0.13.15,0.13,0.2,0.13l0.68,0h0.23l0.93,0c0.18,0,.2-0.09.2-0.13a0.12,0.12,0,0,0-.13-0.11l-0.37,0a0.35,0.35,0,0,1-.29-0.4l0-.83V81.41a2,2,0,0,1,.12-0.81A26.75,26.75,0,0,1,88.44,78a1.49,1.49,0,0,1,.43-0.41,0.71,0.71,0,0,1,.35-0.11,0.14,0.14,0,0,0,.17-0.13c0-.05,0-0.11-0.17-0.11Z" transform="translate(0 0)"/><path class="b" d="M93.13,80.17c0-1.66.91-2.69,2.38-2.69,1.19,0,2.48.95,2.48,3,0,2.67-1.87,2.8-2.25,2.8C94.2,83.31,93.13,82,93.13,80.17Zm-0.92.23a3.19,3.19,0,0,0,3.31,3.35,3.33,3.33,0,0,0,3.4-3.49,3.1,3.1,0,0,0-3.35-3.2A3.29,3.29,0,0,0,92.21,80.4Z" transform="translate(0 0)"/><path class="b" d="M103.26,77.15l0,0-0.25,0H100.7l-0.83,0s-0.2,0-.2.13a0.12,0.12,0,0,0,.13.11l0.27,0a0.35,0.35,0,0,1,.31.42l0,1.8v1.47c0,0.78,0,1.46,0,1.81a0.4,0.4,0,0,1-.19.41l-0.24,0a0.12,0.12,0,0,0-.13.11c0,0.13.15,0.13,0.2,0.13l0.68,0h0.24l0.93,0c0.18,0,.2-0.09.2-0.13a0.12,0.12,0,0,0-.13-0.11l-0.37,0c-0.2,0-.25-0.16-0.27-0.4s0-1,0-1.81V80.44c0.31,0,1.06,0,1.25,0a0.45,0.45,0,0,1,.38.26l0,0.24v0a0.12,0.12,0,0,0,.12.13c0.12,0,.12-0.14.12-0.22l0-.55,0.07-.47a0.11,0.11,0,0,0-.1-0.13,0.17,0.17,0,0,0-.13.09,0.39,0.39,0,0,1-.35.14h-1.44V77.68s1.3,0,1.3,0a0.59,0.59,0,0,1,.51.23l0.07,0.29a0.13,0.13,0,0,0,.12.16,0.14,0.14,0,0,0,.13-0.14l0-.42V77.66l0-.29,0-.11a0.12,0.12,0,0,0-.11-0.14Z" transform="translate(0 0)"/><rect class="b" x="13.79" y="88.48" width="89.21" height="0.51"/><path class="b" d="M22.78,93.84l-3.48,7.31-3.5-7.22a0.53,0.53,0,0,0-.38-0.42c-0.09,0-.2.06-0.25,0.36l-1.28,8.42a1.06,1.06,0,0,1-.5,1l-0.38,0c-0.06,0-.24,0-0.24.12a0.21,0.21,0,0,0,.26.17l0.79,0,0.48,0h0.41l0.94,0c0.17,0,.34,0,0.34-0.17s-0.08-.12-0.23-0.12l-0.54-.06a0.39,0.39,0,0,1-.36-0.38l0-.6,0.66-5.08c0.11,0.17.63,1.28,0.63,1.28L16.93,100c0.15,0.36,1.16,2.3,1.49,2.93l0,0.07a1,1,0,0,0,.44.59c0.14,0,.21-0.13.51-0.74L22.21,97h0c0,0.05.77,5.67,0.77,5.67a2,2,0,0,1,0,.28,0.26,0.26,0,0,1-.07.24,0.21,0.21,0,0,0-.16.17h0c0,0.12.14,0.15,0.4,0.17,0.51,0,2.29.08,2.62,0.08s0.37-.06.37-0.17-0.16-.12-0.24-0.12a2.53,2.53,0,0,1-.79-0.13c-0.38-.11-0.5-0.5-0.61-1.28l-1.18-8c0-.29-0.13-0.43-0.26-0.43A0.43,0.43,0,0,0,22.78,93.84Z" transform="translate(0 0)"/><path class="b" d="M32.88,93.73l-0.08,0-0.55.08c-0.22,0-2.33,0-3.23,0l-0.66,0h-1.2c-0.15,0-.32,0-0.32.15s0.17,0.15.25,0.15l0.5,0a0.61,0.61,0,0,1,.53.71c0,0.41,0,.77,0,2.74v2.27c0,1.18,0,2.21-.06,2.75s-0.13.64-.35,0.68l-0.46.05c-0.1,0-.24,0-0.24.14s0.1,0.16.29,0.16l0.89,0H29l1.34,0h0.37l1.86,0c0.5,0,.63,0,0.73-0.36a10,10,0,0,0,.17-1.44c0-.13,0-0.26-0.14-0.26s-0.15.09-.17,0.22a1.06,1.06,0,0,1-.56.93,3.28,3.28,0,0,1-1.2.15c-1.34,0-1.49-.21-1.52-1.05v-3c0-.1,0-0.1,0-0.1,0.29,0,1.58,0,1.83,0a0.67,0.67,0,0,1,.7.48l0,0.34v0.12a0.13,0.13,0,0,0,.15.14c0.15,0,.15-0.17.15-0.28l0-.41,0-.46,0.09-.8,0-.14a0.12,0.12,0,0,0-.12-0.13,0.33,0.33,0,0,0-.21.16A0.86,0.86,0,0,1,32,98c-0.19,0-.92,0-2.06,0,0,0-.06,0-0.06-0.11V94.65c0-.1,0-0.1.06-0.1,0.25,0,1.61,0,1.83.05,0.65,0.08.76,0.23,0.84,0.45a1.38,1.38,0,0,1,.07.45,0.17,0.17,0,0,0,.15.21A0.17,0.17,0,0,0,33,95.54L33,95l0-.26L33.11,94l0-.13A0.12,0.12,0,0,0,33,93.7Z" transform="translate(0 0)"/><path class="b" d="M37.86,93.82l-0.68,0-0.66,0-1.11,0c-0.15,0-.32,0-0.32.15s0.17,0.15.25,0.15l0.42,0a0.61,0.61,0,0,1,.53.71c0,0.41,0,.77,0,2.74v2.27c0,1.18,0,2.21-.06,2.75s-0.13.64-.35,0.68l-0.46.05c-0.1,0-.24,0-0.24.14s0.22,0.16.29,0.16l0.89,0h0.74l2,0,1.74,0c0.68,0,.76-0.07.84-0.37a10.11,10.11,0,0,0,.19-1.49c0-.12,0-0.25-0.13-0.25a0.2,0.2,0,0,0-.17.22,1.58,1.58,0,0,1-.33.76,1.91,1.91,0,0,1-1.49.35,2.26,2.26,0,0,1-1.54-.28C38,102.38,38,101.48,38,99.85V97.58c0-2,0-2.32,0-2.74s0.14-.65.45-0.71l0.5,0c0.14,0,.26,0,0.26-0.15s-0.15-.15-0.3-0.15Z" transform="translate(0 0)"/><path class="b" d="M45.83,93.82l-0.93,0H44.4l-1.26,0c-0.15,0-.32,0-0.32.15s0.17,0.15.25,0.15l0.5,0a0.61,0.61,0,0,1,.53.71c0,0.41,0,.77,0,2.74v2.27c0,1.18,0,2.21-.06,2.75a0.68,0.68,0,0,1-.35.68l-0.46.05c-0.1,0-.24,0-0.24.14s0.22,0.16.29,0.16l0.89,0h0.74l1,0,0.5,0,0.4,0c2.4,0,3.48-1.43,3.48-2.85A3.14,3.14,0,0,0,48,98a2.78,2.78,0,0,0,1.29-2.25c0-.46-0.2-2-2.78-2Zm0.43,0.58a1.8,1.8,0,0,1,1.58,2,1.66,1.66,0,0,1-.52,1.34,1.31,1.31,0,0,1-.91.24l-0.6,0s-0.07,0-.07-0.11V94.61c0-.14,0-0.17.09-0.19Zm-0.08,8.47c-0.39-.16-0.43-0.36-0.43-1.21V98.6c0-.05,0-0.06,0-0.06h0.55a1.83,1.83,0,0,1,1.05.3h0a3.08,3.08,0,0,1,1.24,2.54A1.47,1.47,0,0,1,47.11,103,2.28,2.28,0,0,1,46.18,102.87Z" transform="translate(0 0)"/><path class="b" d="M51.6,98.71a5,5,0,0,0,5.24,5.09,5.12,5.12,0,0,0,5.38-5.33c0-3-2-4.86-5.25-4.86A5,5,0,0,0,51.6,98.71Zm1.85-.4c0-3.49,2-4,3.15-4,2.21,0,3.75,1.91,3.75,4.66,0,3.74-2.07,4.14-3,4.14C55.06,103.1,53.44,101.13,53.44,98.31Z" transform="translate(0 0)"/><path class="b" d="M72.12,93.83H71.75l-1.48,0c-0.15,0-.3,0-0.3.15s0.17,0.15.25,0.15l0.46,0a0.61,0.61,0,0,1,.53.71c0,0.41,0,.77,0,2.74v1.61c0,1.38-.05,2.49-0.74,3.18a2.53,2.53,0,0,1-1.76.69,2.37,2.37,0,0,1-1.59-.52c-0.52-.42-1-1.1-1-3.15V97.58c0-2,0-2.32,0-2.74s0.14-.65.45-0.71l0.37,0c0.07,0,.24,0,0.24-0.15s-0.16-.15-0.32-0.15l-0.94,0-0.65,0-0.69,0-1.2,0c-0.15,0-.32,0-0.32.15s0.17,0.15.25,0.15l0.5,0a0.61,0.61,0,0,1,.53.71c0,0.41,0,.77,0,2.74v1.89a4.35,4.35,0,0,0,1.16,3.45,4.2,4.2,0,0,0,2.89.9,3.91,3.91,0,0,0,2.71-.94c1.09-.93,1.24-2.43,1.24-3.91V97.58c0-2,0-2.32,0-2.74s0.14-.65.45-0.71l0.37,0c0.14,0,.26,0,0.26-0.15s-0.16-.15-0.3-0.15Z" transform="translate(0 0)"/><path class="b" d="M77.71,93.82l-0.95,0H76.24L75,93.8c-0.15,0-.32,0-0.32.15s0.17,0.15.25,0.15l0.5,0a0.61,0.61,0,0,1,.53.71c0,0.41,0,.77,0,2.74v2.27c0,1.18,0,2.21-.06,2.75a0.68,0.68,0,0,1-.35.68l-0.46.05c-0.1,0-.24,0-0.24.14s0.22,0.16.29,0.16l1.05,0h0.94l1.48,0c0.07,0,.29,0,0.29-0.16s0-.14-0.19-0.14l-0.63-.05a0.59,0.59,0,0,1-.48-0.68c-0.06-.54-0.06-1.57-0.06-2.76V99.66a0.06,0.06,0,0,1,.07-0.07l1.12,0a0.24,0.24,0,0,1,.21.08l0.62,0.85,0.66,0.93A6.2,6.2,0,0,0,82,103.38a2.67,2.67,0,0,0,1.4.25h1.23c0.09,0,.28,0,0.28-0.16s0-.14-0.19-0.14l-0.36,0a2.58,2.58,0,0,1-1.43-.87c-0.66-.69-1.4-1.63-2.35-2.82l-0.43-.55a3.67,3.67,0,0,0,1.69-2.9,2.26,2.26,0,0,0-.89-1.8,4.17,4.17,0,0,0-2.39-.56Zm0,5c-0.07,0-.09-0.06-0.09-0.2V94.67a0.12,0.12,0,0,1,.09-0.15,2.73,2.73,0,0,1,.68-0.05,2,2,0,0,1,1.94,2.33,2.21,2.21,0,0,1-.75,1.91,1.26,1.26,0,0,1-.9.21A3.34,3.34,0,0,1,77.66,98.8Z" transform="translate(0 0)"/><path class="b" d="M86.47,94.05l-0.12,7.64c0,1.11-.07,1.48-0.38,1.57a2.3,2.3,0,0,1-.57.06c-0.07,0-.24,0-0.24.14s0.18,0.16.32,0.16l1.18,0h0.58l1.24,0c0.11,0,.33,0,0.33-0.16s-0.18-.14-0.25-0.14a2,2,0,0,1-.66-0.09c-0.28-.1-0.41-0.52-0.43-1.4,0,0-.14-5.25-0.14-5.36,0.07,0.06.26,0.27,0.26,0.27,0.54,0.6,1.67,1.84,2.79,2.95l1.71,1.72,2.1,2.08a0.79,0.79,0,0,0,.46.29c0.18,0,.2-0.22.2-0.43L95,95.2c0-.72.12-1,0.45-1.07l0.38,0c0.18,0,.27-0.05.27-0.15s-0.2-.15-0.33-0.15l-1,0H94l-1.11,0c-0.16,0-.37,0-0.37.15s0.13,0.15.24,0.15a2.08,2.08,0,0,1,.67.08c0.27,0.11.41,0.31,0.42,1.13L94,101.07h0s-0.91-1-.91-1l-1.91-2c-2-2-4-4.12-4-4.15l-0.12-.13a0.62,0.62,0,0,0-.38-0.28C86.49,93.58,86.47,93.85,86.47,94.05Z" transform="translate(0 0)"/><path class="b" d="M102.68,93.73l-0.07,0-0.55.08c-0.22,0-2.33,0-3.23,0l-0.66,0H97c-0.15,0-.32,0-0.32.15s0.17,0.15.25,0.15l0.5,0a0.61,0.61,0,0,1,.53.71c0,0.41,0,.77,0,2.74v2.27c0,1.18,0,2.21-.06,2.75a0.68,0.68,0,0,1-.35.68l-0.46.05c-0.1,0-.24,0-0.24.14s0.22,0.16.29,0.16l0.89,0h0.74l1.34,0h0.37l1.86,0c0.48,0,.63,0,0.73-0.36a10,10,0,0,0,.17-1.44c0-.13,0-0.26-0.13-0.26s-0.15.09-.17,0.22a1.06,1.06,0,0,1-.56.93,3.28,3.28,0,0,1-1.2.15c-1.34,0-1.49-.21-1.52-1.05v-3c0-.1,0-0.1,0-0.1,0.29,0,1.58,0,1.83,0a0.67,0.67,0,0,1,.7.48l0,0.34v0.12a0.13,0.13,0,0,0,.15.14c0.15,0,.15-0.17.15-0.28l0-.42,0-.45,0.09-.8,0-.14a0.12,0.12,0,0,0-.12-0.13,0.33,0.33,0,0,0-.21.16,0.86,0.86,0,0,1-.62.2c-0.19,0-.92,0-2.06,0,0,0-.06,0-0.06-0.11V94.65c0-.1,0-0.1.06-0.1,0.25,0,1.61,0,1.83.05,0.65,0.08.76,0.23,0.84,0.45a1.37,1.37,0,0,1,.08.45,0.17,0.17,0,0,0,.15.21,0.17,0.17,0,0,0,.16-0.17l0-.59,0-.27,0.09-.72,0-.13c0-.1,0-0.15-0.11-0.15Z" transform="translate(0 0)"/><path class="b" d="M58,70c-2.16-2.16-4.82-3.3-7.4-4.4l-0.21-.09L49,65l-0.33-.13-0.24-.11v0c-8.45-3-13.62-9.95-13.84-18.65,0-.35,0-0.73,0-1.12a37.69,37.69,0,0,1,.23-4.08l0.38-2.83L36,33.67c0.08-.46.12-0.68,0.14-0.79l0.07-.27h0c0-.62.09-1.37,0.09-2.12,0-3.06-.78-5-2.52-6.28h0L33.46,24l3.76-4.9-0.11-.14a2.43,2.43,0,0,1-.51-1.21l-0.06-.56,0.53,0.19c0.34,0.12.67,0.23,1,.32l0.15,0L42,12.85l0.17,0.29c0.7,1.18,2,1.75,3.83,1.75a15.93,15.93,0,0,0,2.77-.29L52.48,14l3.12-.36,0.23,0c0.73-.07,1.51-0.11,2.33-0.11a36.1,36.1,0,0,1,5.19.4L66,14.32l3.25,0.54c0.48,0,1,.09,1.58.09a4.39,4.39,0,0,0,3.2-1,3.51,3.51,0,0,0,.42-0.47L74.82,13l3.44,4.52,0.16-.06,2.29-.84,0.68-.24a23.87,23.87,0,0,1,3.14-.95l0.67-.14-0.27.63a8.58,8.58,0,0,1-.66,1.27l-0.41.62,0.69-.28,0.92-.37L85,18a9.13,9.13,0,0,1-2,2.5l-0.18.14L83,20.84l0,0a1.16,1.16,0,0,1,.14.59,1.48,1.48,0,0,1-.12.61,2.66,2.66,0,0,1-.51.74l-0.14.14,0.92,1.22-0.18.14c-1.78,1.34-2.64,3.4-2.64,6.3v0.1c0,0.15,0,.31,0,0.47a18.27,18.27,0,0,0,.14,2.16l0.45,2.84,0.49,2.92,0.33,3.16L82,45.17c0,0.11,0,.22,0,0.34,0,4.7-1.58,9.45-4.11,12.41L77.84,58c-1.65,2-3.91,4.76-10.08,6.93-3.46,1.26-6.54,2.49-9.18,4.84h0l-0.1.11L58.39,70l-0.19.21Z" transform="translate(0 0)"/><path class="a" d="M82.31,23.72a0.22,0.22,0,0,0-.13-0.1A0.21,0.21,0,0,1,82.31,23.72Zm0,0h0Zm-19.92,20M84.47,17.3A8.88,8.88,0,0,0,85.15,16l0.45-1-1.11.24a24.08,24.08,0,0,0-3.17,1l-0.68.24-2.3.84-3.52-4.62-0.55.7a3.3,3.3,0,0,1-.4.45,4.18,4.18,0,0,1-3,1c-0.55,0-1.09,0-1.54-.09l-3.26-.54-2.64-.39a36.33,36.33,0,0,0-5.22-.41,23.81,23.81,0,0,0-2.59.13h0l-3.13.36-3.73.58a15.71,15.71,0,0,1-2.73.29c-1.79,0-3-.54-3.63-1.64L42,12.41l-3.85,5c-0.33-.09-0.67-0.2-1-0.32l-0.88-.31,0.1,0.93a2.65,2.65,0,0,0,.55,1.33L33.16,24l0.38,0.38,0,0C35.25,25.61,36,27.48,36,30.47c0,0.84-.06,1.69-0.11,2.34h0c0,0.11-.07.34-0.14,0.81L35,38.07,34.63,40.9A37.91,37.91,0,0,0,34.4,45c0,0.39,0,.77,0,1.12C34.64,55,40,62.1,48.63,65.08h0L49,65.21l1.36,0.51,0.21,0.09c2.56,1.09,5.21,2.23,7.33,4.35l0.34,0.34,0.35-.39L58.66,70l0.09-.1c2.61-2.32,5.67-3.54,9.1-4.79,6.23-2.19,8.51-5,10.18-7l0-.06c2.57-3,4.17-7.82,4.17-12.57,0-.12,0-0.23,0-0.34s0,0-.12-3L81.8,39,81.31,36.1l-0.45-2.83a18,18,0,0,1-.14-2.13c0-.16,0-0.31,0-0.47V30.57c0-2.82.83-4.82,2.55-6.11l0.37-.28L82.7,22.95a2.9,2.9,0,0,0,.56-0.8,1.7,1.7,0,0,0,0-1.43l0,0a9.3,9.3,0,0,0,2-2.58L86,16.7ZM39,17.66l3-3.89c1.06,1.52,2.79,1.63,4.51,1.69l1.14-.12,4.89-.77,3.29-.38a37.21,37.21,0,0,1,9.37.56l4.34,0.71c1.84,0.13,3.82.09,5.07-1.28l0.24-.27,2.77,3.64h0l-0.26.11-1.14.43-0.14.05h0L74.6,16.27a9.05,9.05,0,0,1-5.05.83L67,16.71l-3.14-.51-3.35-.39a30.75,30.75,0,0,0-6,.14l-2.77.39L47.13,17a8.59,8.59,0,0,1-4.93-.86L40.77,18l-0.57-.11Zm35.07,8.65c0,0.45-.57.55-0.75,0.92l-0.25.18a0.88,0.88,0,0,0,.6-0.34c0.36-.12,1.51-0.36,1.56-0.13a0.66,0.66,0,0,1-.4.67,4.17,4.17,0,0,1-2.44.62,6,6,0,0,0-1.43.23l-2.4.7a5.63,5.63,0,0,1-2.71.12,16.29,16.29,0,0,0-4.05-.51,0.6,0.6,0,0,0-.47.32,0.69,0.69,0,0,1,.51,0,2.94,2.94,0,0,1-.43,1.57,1.33,1.33,0,0,1-.21-0.47c-0.05-.17-0.63-2.71.48-3.51a2.61,2.61,0,0,1,1.76.31c0.86,0.47,2.33.71,3.47,1.15,0.5-.06,1-0.22,1.49-0.28l3.44-.45c0.61,0.12.71-.67,1.24-0.73a1.61,1.61,0,0,0,.85-0.41A0.07,0.07,0,0,1,74.07,26.31ZM45.7,27.86a1.59,1.59,0,0,1,1-.16,4.43,4.43,0,0,1,1.79.66c1.19,0.39,2.11,1.21,3.32,1.59a0.34,0.34,0,0,0-.18-0.26A10.93,10.93,0,0,1,54,28.24a2.5,2.5,0,0,1,2.14-1.13l0.2,0s0,0.2,0,.28a5.23,5.23,0,0,1-.52,1.54,8.65,8.65,0,0,0-1.08.48L51.94,31c-0.72.57-1.07-.07-1.81-0.57a10.8,10.8,0,0,1-2.5-1.6c0-.1.22,0,0.12-0.16a5.47,5.47,0,0,0-1.12.31c-0.16.07-.56,0.21-0.69,0l0.19,0a1.91,1.91,0,0,1,.71-0.57A2.12,2.12,0,0,0,45.59,28Zm31.84,0.21a1.21,1.21,0,0,1-.94.84A2.2,2.2,0,0,1,75,28.68c0,0.47.8,0.65,1.38,0.54a2.75,2.75,0,0,1-2,.71,3.67,3.67,0,0,1-1.95-.67c-0.07.46,0.79,0.84,1.41,0.89a3.65,3.65,0,0,1-2.76.14,2.67,2.67,0,0,1-1.1-.57,1,1,0,0,0,.89.74,1.84,1.84,0,0,1-2.23-.71c1.32-.38,2.33-0.74,3.67-1.07a3.5,3.5,0,0,0,3-.89,1.62,1.62,0,0,0,.32-0.56,0.86,0.86,0,0,1,.41,0C76.13,27.29,77.42,27.58,77.54,28.06ZM66.55,30a5.53,5.53,0,0,0,1.79-.15,0.41,0.41,0,0,1-.39.58,3.18,3.18,0,0,1,.37,1.21l-1.21-.47a2.32,2.32,0,0,1,.42,1.48c-0.37-.28-1.14-0.3-1.45-0.54,0.15,0.56.51,1.36,0,1.89a10.29,10.29,0,0,1-1.05-1.2,2.63,2.63,0,0,1-.18,1.83c-0.23-.29-1.24-0.68-1.21-1A7.66,7.66,0,0,1,63,34.87a9.09,9.09,0,0,0-1.09-1.55c0.13-.15.29-0.06,0.23-0.31A2.05,2.05,0,0,0,61,32.29a3,3,0,0,1,.3-0.49,6.65,6.65,0,0,0,.8-1.47,3.84,3.84,0,0,0,.26-1c0.55,0.07.92,0.16,1.59,0.23S65.64,29.87,66.55,30Zm-11.36-.19a1.48,1.48,0,0,0-.35.5,1.46,1.46,0,0,0,.51,1.61,1.84,1.84,0,0,0,.73.36,2.33,2.33,0,0,0-1.42,1.66,1.35,1.35,0,0,1-.26-1.15,1.39,1.39,0,0,1-.85.48,1.24,1.24,0,0,1,.21-1.06,0.93,0.93,0,0,0-1,.11,0.77,0.77,0,0,1,.42-0.84c-0.1-.2-0.31-0.06-0.79,0a13.12,13.12,0,0,0,1.27-.72Zm0.31,14C56.23,45,56.3,45,56.69,45.7s2,3.2,2.35,3.71,2,3.37,3.1,3.93c-0.84.91-.44,2-1.82,2.27-0.8.13-3,.82-3.82-0.48a8.4,8.4,0,0,1-.9-5,7.46,7.46,0,0,0,2.24,2.52c-1.8-2-1.58-2.42-2.44-3.5a3.22,3.22,0,0,1-.46-1.68c-0.07-.91-0.06-1.83-0.1-2.74a5.35,5.35,0,0,0-.16-1.49c-0.06-.18-0.19-0.72-0.23-0.91a1.84,1.84,0,0,1,0-.44A20.38,20.38,0,0,0,55.5,43.81ZM61,26.38A10.94,10.94,0,0,1,58.8,28a2.35,2.35,0,0,1-1.81.42,1.28,1.28,0,0,1-.31-1.17c0-.09,0-0.22,0-0.29a1.29,1.29,0,0,0,1-.48,9.84,9.84,0,0,0,.16-1.11,5.72,5.72,0,0,0,.67-0.79,3.12,3.12,0,0,1-1.73.89c-0.22-.06-0.07-0.34-0.19-0.47a0.28,0.28,0,0,1-.16-0.27h0.11a0.06,0.06,0,0,0,.06-0.06,0.06,0.06,0,0,0-.06-0.06,0.72,0.72,0,0,1-.18,0h0a0.59,0.59,0,0,0,0-.37l-0.35-.06c0-.36.28-0.69,0.29-1.08,0.06,0.07.28,0.06,0.18,0.2a0.2,0.2,0,0,0,0,.22c0-.17.62-0.4,0.28-0.52-0.14,0-.56.07-0.59-0.15A1.54,1.54,0,0,1,56.38,22a2.29,2.29,0,0,1,1,1.07,0.72,0.72,0,0,0,.45.34c0.41-.16.61,0.25,1,0.22A0.21,0.21,0,0,1,59,23.42a0.2,0.2,0,0,1,.25.07,0.49,0.49,0,0,1-.16.42,1,1,0,0,1-.51.18,1.05,1.05,0,0,0,.91-0.2,0.3,0.3,0,0,1,.35.18c0.13,0.75-.19,1.83.75,2.2A4.1,4.1,0,0,0,61,26.38ZM75.54,53.52a1.08,1.08,0,0,0-1.34.54,17.46,17.46,0,0,1-.71,1.63A2.45,2.45,0,0,1,72,56.81c-0.78.22-1.88,0.27-2-.2,0.2-1,1.5-1.11,2.06-1.37a2.3,2.3,0,0,0,1.16-2.35c-1.45-.94-4.38-3.26-4.38-3.26a39.39,39.39,0,0,0,3.91,3.44,1.56,1.56,0,0,1-.84,1.6c-0.41.23-.88,0.4-1.47,0.69-1,.57-0.7,1.37-2,1.88-0.57.22-1.93,0.4-1.57-.33,0.51-.77,0-0.77,0-0.77a8.78,8.78,0,0,1-1.57.34c-0.26,0-.53-0.18-0.3-0.39s0.22-.14.36-0.25a1.38,1.38,0,0,0,.41-0.42,0.62,0.62,0,0,0,.1-0.68,0.53,0.53,0,0,0-.6.11c-0.56.62-.6,1.66-2.21,1.36,0,0-1.89-.44-0.37-2.57,0.43-.57-0.75-1.24-1.45-2.1-1.33-1.63-5.13-7.8-5.13-7.8-0.4-.57-0.81-1.26-1.18-1.81s-0.48-1.75.35-1.63a1.2,1.2,0,0,0,1,.08c0.32-.13.29,0.34,0,0.58a0.5,0.5,0,0,0,.07.74c0.33,0.19.41-.18,0.78-0.08s0.63,1,1.29,1.19c0.18,0,.29,0,0.34-0.09s-0.21-.63-0.14-1a2,2,0,0,0,.77.61c0.46,0.25.73,0.32,0.61-.07s-0.2-.73-0.2-0.73A0.52,0.52,0,0,1,60.08,41a0.48,0.48,0,0,1,.35.26c0.29,0.53.15,0.83,0.81,1a21.35,21.35,0,0,0,4.56,5.63,3.69,3.69,0,0,0,.89.51c-0.23-.22-0.59-0.54-0.75-0.69-2.68-2.57-4.38-4.95-4.33-5.45,0.77-.32.89-1.06,1.11-1s-0.24.68-.18,1a0.61,0.61,0,0,0,.7.42c-0.87.87,1.34,1.59,3,1.56a9.5,9.5,0,0,0,2.86,1.27,0.75,0.75,0,0,0,.51.61,22.24,22.24,0,0,0,2.14,2.73C73,50.22,74.38,52.38,75.54,53.52ZM66,52.05c-2.64-2.82-5.27-7.09-5.62-7.22,0,0,3.26,4.95,3.85,5.78s1.4,1.63,1.78,2.31A0.68,0.68,0,0,0,66,52.05Zm-4.8-25.19c-1.13,1.08.21,3.8-.56,4.91a3.45,3.45,0,0,0-.23.39,4.28,4.28,0,0,0-1.5-.22c-0.31,0-.67.07-0.92,0.09a12.53,12.53,0,0,0-1.62.11,1.94,1.94,0,0,1,.23-0.39,1.32,1.32,0,0,1-1.21-.47,0.91,0.91,0,0,1-.13-0.84c0.15-.4.57-0.78,0.75-1.15a3.33,3.33,0,0,0,.41-1,0.76,0.76,0,0,0,.65.61,2.83,2.83,0,0,0,1.83-.49,2.53,2.53,0,0,1-2,1.16,3,3,0,0,0,1.71-.43,8,8,0,0,0,1.88-1.88A1.58,1.58,0,0,1,61.19,26.86Zm-1.27,3.81a1.14,1.14,0,0,1-1.15.65,1.08,1.08,0,0,1-1.16-.51,1,1,0,0,0,1.16.85A1,1,0,0,0,59.92,30.67Zm22.62-6.62a7.07,7.07,0,0,0-2.37,4.11,17.66,17.66,0,0,0,0,5.72l0.92,5.72,0.27,2.5L81.44,45c0.19,6.76-3.06,15.81-14.15,19.45l-2.68,1a22.94,22.94,0,0,0-6.41,3.83c-2.69-2.4-5.85-3.71-9.05-4.93A19.33,19.33,0,0,1,35.21,46.67a38,38,0,0,1,.23-6.11l0.42-3,0.71-4.09a15.08,15.08,0,0,0-.44-7,7,7,0,0,0-1.92-2.59c0.93-1.23,2-2.66,3-3.91l0,0.11,0,0.06a5.83,5.83,0,0,0,.49,1L38,21.58l-1.62,2.16c2,2.25,2.1,5.43,2,8.42L38.12,34l-0.88,5.3-0.35,3L36.79,45.1c-0.34,6.78,4.82,15.46,14.31,18.31a31.58,31.58,0,0,1,7.09,3.77,31,31,0,0,1,7.14-3.71c11-3.09,14.31-11.57,14.45-17.16a36.49,36.49,0,0,0-.27-6.08l-0.42-2.81-0.57-3.5a18.58,18.58,0,0,1,.07-6.19,3.06,3.06,0,0,0,1.61-2.06l0.06-.18a8.94,8.94,0,0,0,2-1.87A1.28,1.28,0,0,1,82.53,24.05Zm2.07-8.27c-0.76,1.75-1.24,2.25-2.41,2.66,0,0-3.78,1.16-4.74,1.53a18.27,18.27,0,0,0-2.57,1.23c-2-1.23-5.71-.31-6.6,0a19.06,19.06,0,0,0-4.16,2.31A1.5,1.5,0,0,0,63.47,23a1.09,1.09,0,0,1,.51,1,1.16,1.16,0,0,1,1.2-.14c0.42,0.37,0,.82-0.16,1.17a1.2,1.2,0,0,1,1.44-.3c0.55,0.36-.07,1-0.25,1.33,0.41-.07.83-0.38,1.12,0s-0.15.64-.56,0.88a11.43,11.43,0,0,0,1.55.35l-1.42.14c-0.25-.06-0.56-0.2-1.06-0.34-1.31-.37-2.08-0.77-2.6-0.94a2.76,2.76,0,0,0-1.5-.1,3.12,3.12,0,0,0-.39.1c1.73-.61,1.21-2.69,2-4,0.83-1.57,2.58-1.94,4.13-2.22,2-.28,5.18-0.58,6.12-0.78a28.63,28.63,0,0,0,4.22-1.23c0.52-.24,2.79-1,3.66-1.36A24.38,24.38,0,0,1,84.6,15.78Zm0.11,2.07a5.81,5.81,0,0,1-2.06,2.64,12.8,12.8,0,0,1-4.55,1.2,5.47,5.47,0,0,1-2.41-.18,2.79,2.79,0,0,1-.56-0.24,35,35,0,0,1,7.37-2.63C84,18.12,84.17,18.07,84.71,17.85ZM58.2,20.14a2,2,0,0,0-1.7,1,0.57,0.57,0,0,1,.09-0.78A1.6,1.6,0,0,1,58.2,20.14Zm24.51,1.77a2.42,2.42,0,0,1-.74.9c-0.85.71-4.88,1.3-6.42,0.78,1.64-.66,1.81-1.21,1.9-1.62a13.71,13.71,0,0,0,5.12-1.08C82.81,20.83,82.85,21.61,82.71,21.91ZM73.92,21c0.47,0.16,1.2.49,0.86,0.59-2.58.43-4.27,1.15-8.71,2.85a1.3,1.3,0,0,0-.49.08,0.77,0.77,0,0,0-.23-0.75,1,1,0,0,0-1.08-.12,20.83,20.83,0,0,1,4.11-2.24,11.52,11.52,0,0,1,3.8-.66A4.71,4.71,0,0,1,73.92,21Zm-13.24.14a0.63,0.63,0,0,1-.26.65c-0.5.23-.8-0.28-1.21-0.4-0.76-.12-1.67,0-2.41-0.18a1.93,1.93,0,0,1,.92-0.72,3.83,3.83,0,0,1,2-.15A1.31,1.31,0,0,1,60.68,21.16Zm0.61,0.26a0.36,0.36,0,0,1-.09.24,0.36,0.36,0,0,1-.42.15,0.57,0.57,0,0,1,.28-0.54A0.17,0.17,0,0,1,61.29,21.42ZM77.19,22a2.18,2.18,0,0,1-1,1,4.1,4.1,0,0,0-1.34.77,24.57,24.57,0,0,1-4,1.3c-1.2.3-2.18,0.56-3.34,0.75a1,1,0,0,0-.75-0.13c0.3-.62.18-1-0.35-1.19l5.83-2.1a16.19,16.19,0,0,1,3.32-.72A6.22,6.22,0,0,0,77.19,22Zm-17.78-.26a3.17,3.17,0,0,1,1.25,1.16,0.88,0.88,0,0,1-.23.75,0.75,0.75,0,0,0-.39.39,0.59,0.59,0,0,0-.12-0.47,1.05,1.05,0,0,1-.41-0.47,3.32,3.32,0,0,1-1.83-.27,0.6,0.6,0,0,0-.17-0.36c0.19,0,.91,0,1.29.05a1.89,1.89,0,0,1,1,.16c0,0.07-.07.07-0.12,0.09a0.32,0.32,0,0,0-.13,0,0.48,0.48,0,0,0,.56.18,0.22,0.22,0,0,0,.1-0.32,0.85,0.85,0,0,0-.72-0.31c-0.34,0-2.11-.07-2.11-0.07a3.72,3.72,0,0,0-.87-0.64,0.18,0.18,0,0,1,.21-0.2A15.39,15.39,0,0,0,59.41,21.77Zm2.32,0.1c0,0.12,0,.09.15,0.21a0.59,0.59,0,0,1-.32.5,0.54,0.54,0,0,1-.57,0,1.56,1.56,0,0,0-.31-0.12,1,1,0,0,1,.75-0.7A0.2,0.2,0,0,1,61.73,21.88Zm-17.53.3c1.69,0.3,1.6,1.82,2,2.47a9.65,9.65,0,0,1-3.15-.13c-3.87-.89-4.61-2.72-5.65-5.17C39.3,21,43.41,22,44.2,22.18Zm37.65,1a8.77,8.77,0,0,1-3,2.44,2.91,2.91,0,0,1-2,.11,3.29,3.29,0,0,1-1.28-.58,1.1,1.1,0,0,1-.59-1,0.4,0.4,0,0,1,.43-0.32A11.16,11.16,0,0,0,81.85,23.2Zm-20.42-.32a0.52,0.52,0,0,1,.22,0c0.1,0.34-.27.44-0.48,0.5a0.33,0.33,0,0,1-.31-0.23,0.47,0.47,0,0,0-.07-0.31,0.16,0.16,0,0,1,.07-0.13A0.49,0.49,0,0,0,61.42,22.88Zm-15.07,2a3.81,3.81,0,0,0,1.15,1.28,7.71,7.71,0,0,1-1.64.21A12.2,12.2,0,0,1,44,26.34c-1.41-.11-3.21-1.81-3.65-2.47a10.15,10.15,0,0,0,3.2,1A10.57,10.57,0,0,0,46.36,24.9Zm4.59,1.21a0.65,0.65,0,0,0,.32.61,5.13,5.13,0,0,0-.89.1,4.37,4.37,0,0,1-3.79-1.94,5,5,0,0,1,1.28.1A11.49,11.49,0,0,1,50.94,26.11Zm26-.08a1.68,1.68,0,0,1-1.27.84,0.64,0.64,0,0,0-.75-0.43,2.48,2.48,0,0,0-.63.14,0.55,0.55,0,0,0,0-.58,0.27,0.27,0,0,0-.17-0.12,1.07,1.07,0,0,0-.58.2,2.34,2.34,0,0,1-.63.17,1.47,1.47,0,0,0-.76.66,0.48,0.48,0,0,1-.31,0c-0.14-.06-2.64.3-2.64,0.3A7,7,0,0,1,67.27,27a0.66,0.66,0,0,0,.32-0.93s3.36-.73,4.69-1.11a16.11,16.11,0,0,0,2.49-.83,1.57,1.57,0,0,0,.75,1.27A4.37,4.37,0,0,0,76.93,26Zm2.81-.65A2.45,2.45,0,0,1,76.1,27a2,2,0,0,0,1.12-.91A3.22,3.22,0,0,0,79.74,25.38ZM50.17,27a0.4,0.4,0,0,0-.17.59,0.84,0.84,0,0,0,.37.36,1.74,1.74,0,0,0-.46.47,8.9,8.9,0,0,0-1.25-.59,4.05,4.05,0,0,0-2.35-.67,4.4,4.4,0,0,0-.92.27,3.65,3.65,0,0,1-1.61-.83,10,10,0,0,0,2.27.06,10.29,10.29,0,0,0,1.67-.24A5.73,5.73,0,0,0,50.17,27ZM61.5,33.13c-0.27,0-.1.13-0.67,0.57a1.71,1.71,0,0,1-.88.11,0.64,0.64,0,0,0,0-.74,0.83,0.83,0,0,0-.67-0.52,1.55,1.55,0,0,1,.52.63,0.56,0.56,0,0,1-.15.61,1.4,1.4,0,0,0-.56.31,1.39,1.39,0,0,0-.71-1.42,1.59,1.59,0,0,1,.45,1.58c-0.12.27-1.19,1-1.51,0.73-0.52-.46-0.09-0.83-0.29-1.34,0-.09-0.07-0.22-0.15-0.19a4.76,4.76,0,0,1,0,1.23,1.45,1.45,0,0,1-.8.15A0.89,0.89,0,0,1,56,34.07a3.43,3.43,0,0,1,.7-1.28,1,1,0,0,0-.32.2,1.87,1.87,0,0,0-.67,1.38,0.69,0.69,0,0,0,.17.47,0.87,0.87,0,0,1-.73-0.31,1.41,1.41,0,0,1,.44-1.48,2.06,2.06,0,0,1,.66-0.5,8.14,8.14,0,0,1,2.23-.29,3.69,3.69,0,0,1,1.74.17A4.33,4.33,0,0,1,61.5,33.13Zm9.93,11.33a0.89,0.89,0,0,1-.9.78H70.4c0-.4-0.07-1.17.35-1.24A0.52,0.52,0,0,1,71.43,44.46ZM64.83,39.8a12.57,12.57,0,0,0,2.54,2.39,16.58,16.58,0,0,1-2-2.12,55.91,55.91,0,0,0,5.93,3.73,1,1,0,0,0-1.08.18,4.85,4.85,0,0,0-.2,1.24,0.45,0.45,0,0,1-.43.4,1.7,1.7,0,0,0-1.23-1.49,2.25,2.25,0,0,1,.66,1.07,11.09,11.09,0,0,1-2.78-1.3,5.13,5.13,0,0,1-2.71-.45c-0.69-.45.75-0.53,0.16-1a1.87,1.87,0,0,1-.78-0.31c-0.15-.22.4-0.71,0.16-1.18a0.39,0.39,0,0,0-.69,0c-0.25.24-.4,1.18-1.14,1-0.43-.11-0.3-0.84-0.76-1.18a0.73,0.73,0,0,0-1,0,1,1,0,0,0-.24.76c-0.87-1.74,0-5.44,0-5.44-0.93,2.4-.92,4.48-0.21,5.74a1.93,1.93,0,0,1-.69-0.68A3.36,3.36,0,0,1,58,39.45c-0.55,1,.51,2.73.09,2.72s-0.34-.69-0.78-0.92-0.61.16-.8,0,0.75-.85-0.08-1.32c-0.45-.26-0.65.22-1,0a1.38,1.38,0,0,0-.85-0.12c-0.16-.85.9-4.66,0.9-4.66A1.91,1.91,0,0,0,57,35c0.48,0.9,1.43.16,1.85-.18a3.15,3.15,0,0,1,.79-0.65c0.4-.18.87,0.07,1.28-0.1a1,1,0,0,0,.54-0.46,11.45,11.45,0,0,1,1.52,2.93A16.43,16.43,0,0,0,64.83,39.8ZM56.16,26.53a2.53,2.53,0,0,0-2.47,1.22,4.75,4.75,0,0,0-2.25,1.39,7.81,7.81,0,0,1-1.29-.62,1.09,1.09,0,0,1,.56-0.6,0.82,0.82,0,0,1-.58-0.62c0.14-.51.79-0.21,1.52-0.5A0.65,0.65,0,0,1,51.15,26c0.14-.41.78-0.35,1.29-0.22a0.61,0.61,0,0,1,0-.94,1.94,1.94,0,0,1,1-.13,1.75,1.75,0,0,1,.47-0.88,1.1,1.1,0,0,0-.59.69c-0.95-.08-1.37.38-1.16,1a0.93,0.93,0,0,0-1.1.38,10.16,10.16,0,0,0-4.11-1.26c-0.18,0-.26,0-0.42,0a2.09,2.09,0,0,1-.3-0.67,2.29,2.29,0,0,0-.93-1.52,30.13,30.13,0,0,1,6.07,1.53c-1.39-1-5.16-1.55-7.45-2.08a17.33,17.33,0,0,1-5.51-2.17,2.91,2.91,0,0,1-1.38-2,21.58,21.58,0,0,0,3.14.81c0.81,0.16,1.47.27,2.62,0.52s2.65,0.69,2.65.69c2.44,0.7,5.18.25,7.58,1.07,1.08,0.42,1,1.73,1.19,2.72l0.26,0.26C54.38,25.14,55,25.69,56.16,26.53ZM64,39.74a19.65,19.65,0,0,0,2.26,2.47A10.52,10.52,0,0,1,63.82,40a6.93,6.93,0,0,1-1.62-3.45A12.12,12.12,0,0,0,64,39.74ZM51.38,22C50,21.23,48,21.3,46.83,21a11.63,11.63,0,0,1-1.3-.37c0.45,0.08.86,0.21,1.35,0.27a17.94,17.94,0,0,1,4.51.81,2.45,2.45,0,0,1,1.29,1.83A3.46,3.46,0,0,0,51.38,22Z" transform="translate(0 0)"/><path class="a" d="M24.43,53.82H24.16l0.07,0.27a6.49,6.49,0,0,1-1.84,6.61l-0.57.5,0.75-.13a8.57,8.57,0,0,1,2.13-.15A8.3,8.3,0,0,1,29,62.15l-1.13,5.59a1.09,1.09,0,0,0,0,.25,1.66,1.66,0,0,0,.36.93h0a5.78,5.78,0,0,0,2.88,1.43l0.09,0a16.75,16.75,0,0,0,13.15-2.59l2.19-1.43,1-.59,1.16-.71a17.39,17.39,0,0,1,6.13-2.4A17.18,17.18,0,0,1,67,65.12l0.45,0.26,2.87,1.88,1.79,1.13a16.76,16.76,0,0,0,13.38,1.93c0.73-.24,2.23-0.74,2.44-2.06v0l-1.13-5.87L87,62.24l0,0a9.58,9.58,0,0,1,6.33-.94l0.78,0.15L93.46,61a6.43,6.43,0,0,1-1.81-6.62l0.07-.27H91.45a22.84,22.84,0,0,0-7.59,1.13c-1.14.44-2.86,1.1-3.36,2.65v0l-0.06,4.49s0,1.26,0,1.77a12.58,12.58,0,0,1-6.74-2.66L73,61l-2.67-1.74a24,24,0,0,0-9.57-3.56,23.49,23.49,0,0,0-16.22,4L42,61.39c-2,1.3-4.12,2.56-6.72,2.59,0-.33,0-5.95,0-5.95,0-.89-0.7-1.72-2-2.46A19.75,19.75,0,0,0,24.43,53.82Z" transform="translate(0 0)"/><path class="b" d="M32.67,60.28a4.73,4.73,0,0,0,2-1c0,0.3,0,4.53,0,4.69a7,7,0,0,1-4.63-1.44L30,62.46a0.93,0.93,0,0,1-.27-0.54,0.54,0.54,0,0,1,.05-0.23,2.68,2.68,0,0,1,1.87-1.12l0.59-.18Z" transform="translate(0 0)"/><path class="b" d="M81.05,59.54a6,6,0,0,0,2.45,1.13,6.51,6.51,0,0,1,2.18.91,0.69,0.69,0,0,1,.29.49,0.51,0.51,0,0,1-.05.22,3.48,3.48,0,0,1-2.07,1.41,11,11,0,0,1-2.8.41V59.54Z" transform="translate(0 0)"/><path class="b" d="M25.06,55.93a8.2,8.2,0,0,0-.15-1.52,19.19,19.19,0,0,1,8.41,1.86,2.48,2.48,0,0,1,1.42,1.79s0,0,0,.06c-0.12,1-1.13,1.3-2,1.56L31.56,60a3.13,3.13,0,0,0-2.34,1.52,10.13,10.13,0,0,0-5.68-1.25A6.78,6.78,0,0,0,25.06,55.93Z" transform="translate(0 0)"/><path class="b" d="M84.86,60.43l-0.09,0-1.12-.34a4.55,4.55,0,0,1-2.42-1.19,1.07,1.07,0,0,1-.17-0.61,1.38,1.38,0,0,1,.11-0.54C82,56.43,83.44,56,84.83,55.54l0.37-.12A24,24,0,0,1,91,54.67a9.38,9.38,0,0,0-.15,1.6,6.55,6.55,0,0,0,1.46,4.29,10.58,10.58,0,0,0-5.7,1.21A2.52,2.52,0,0,0,84.86,60.43Z" transform="translate(0 0)"/><path class="b" d="M41.67,62.38l3.88-2.5a22.24,22.24,0,0,1,15-3.51,22.92,22.92,0,0,1,8.86,3.15l2.5,1.56,2.55,1.66a11.7,11.7,0,0,0,8.4,1.87A5.73,5.73,0,0,0,86.31,63l1,5.3a2.26,2.26,0,0,1-1.52,1.31l-0.16.07a16.39,16.39,0,0,1-14.09-2.31L67.72,64.8a18.39,18.39,0,0,0-13.48-2.61,19.8,19.8,0,0,0-7.09,3l-3.55,2.3A16.29,16.29,0,0,1,32.13,70a6.55,6.55,0,0,1-3.39-1.35A1.06,1.06,0,0,1,28.42,68s0.93-4.6,1.06-5.26c1.29,1.42,3.16,1.74,5,1.83A11.9,11.9,0,0,0,41.67,62.38Z" transform="translate(0 0)"/><path class="a" d="M31.7,65.51l-1.38-.2a0.2,0.2,0,0,0,0,.11c0.13,0.07.14,0.1,0.13,0.17L30,68.15c0,0.08,0,.1-0.14.1a0.23,0.23,0,0,0,0,.11,9.06,9.06,0,0,0,.9.16h0l0-.11c-0.11-.05-0.13-0.08-0.13-0.13a0.24,0.24,0,0,1,0,0l0.15-1a4.63,4.63,0,0,0,.62.12A0.94,0.94,0,1,0,31.7,65.51ZM31.4,66.78l-0.55-.08A6,6,0,0,0,31,66L31.51,66a0.65,0.65,0,0,1,.44.18l0,0.27C32,66.76,31.8,66.84,31.4,66.78Zm2.94-1a1.36,1.36,0,0,0-1,.35,1.69,1.69,0,0,0-.49,1.2A1.44,1.44,0,0,0,34.24,69a1.35,1.35,0,0,0,1-.35,1.87,1.87,0,0,0,.08-2.43A1.36,1.36,0,0,0,34.34,65.82Zm0.44,2.46a0.7,0.7,0,0,1-.52.18,0.85,0.85,0,0,1-.75-1.07,1.17,1.17,0,0,1,.3-0.84,0.69,0.69,0,0,1,.52-0.18,0.7,0.7,0,0,1,.51.21A1.48,1.48,0,0,1,34.78,68.28Zm2.74-1.54c-0.37,0-.69,0-0.74-0.23a0.36,0.36,0,0,1,.36-0.41,0.66,0.66,0,0,1,.76.16v0.07a0.19,0.19,0,0,0,.12.07s0.31-.82.31-0.82l0-.11-0.15.07-0.1.08-0.15,0-0.17,0a1.89,1.89,0,0,0-.72,0,1,1,0,0,0-.92,1.13,1.08,1.08,0,0,0,1.29.64c0.39,0,.73,0,0.78.25l0,0.28a0.84,0.84,0,0,1-.54.28,1.23,1.23,0,0,1-.76-0.07L36.82,68l0-.08-0.09,0a7.81,7.81,0,0,0-.23.8h0l0.06,0h0a0.1,0.1,0,0,1,0-.06l0.18,0,0.18,0,0.71,0a1.16,1.16,0,0,0,1.13-1.26A1.12,1.12,0,0,0,37.52,66.74Zm3.64,0.5-1-2.13a5.31,5.31,0,0,0,.62-0.25c0.12-.05.15-0.05,0.2,0a0.23,0.23,0,0,0,.11,0,6.39,6.39,0,0,0-.29-0.7,0.2,0.2,0,0,0-.12,0,0.16,0.16,0,0,1-.14.18l-1.8.82c-0.13.06-.15,0-0.19,0a0.23,0.23,0,0,0-.11,0,6.42,6.42,0,0,0,.28.71,0.2,0.2,0,0,0,.12,0s0,0,0,0A0.15,0.15,0,0,1,39,65.68l0.64-.29h0c0,0.07.93,2.11,0.93,2.11a0.18,0.18,0,0,1,0,.07,0.09,0.09,0,0,1-.05.07v0a0.31,0.31,0,0,0,0,.1,8.07,8.07,0,0,0,.8-0.33h0l0-.1C41.22,67.33,41.19,67.31,41.16,67.24Zm3.22-2.4s0,0,0,0a0.16,0.16,0,0,1-.11.14l-1.12.73h0a7.43,7.43,0,0,0-.4-0.66l0.6-.39c0.12-.07.14-0.07,0.18,0a0.25,0.25,0,0,0,.11,0A5.64,5.64,0,0,0,43.27,64a0.2,0.2,0,0,0-.11,0,0.39,0.39,0,0,1,0,.05,0.16,0.16,0,0,1-.11.14l-0.63.4h0A6.74,6.74,0,0,0,42.05,64s1-.64,1-0.64,0.14-.07.18,0a0.24,0.24,0,0,0,.11,0A5.79,5.79,0,0,0,43,62.69a0.19,0.19,0,0,0-.11,0,0.16,0.16,0,0,1-.11.2L41.09,64a0.2,0.2,0,0,0,0,.11c0.19-.07.21,0,0.25,0l1.41,2.18c0,0.06.05,0.09-.07,0.19a0.22,0.22,0,0,0,0,.11s1.82-1.13,1.82-1.13,0.14-.07.18,0a0.24,0.24,0,0,0,.11,0,6,6,0,0,0-.37-0.63A0.2,0.2,0,0,0,44.38,64.84ZM47,63.45l-0.1-.06L46,62.89l0,0a0.77,0.77,0,0,0,.07-1,0.91,0.91,0,0,0-1.37-.17l-1.22.79a0.19,0.19,0,0,0,0,.11c0.13,0,.16,0,0.2.05l1.41,2.18a0.1,0.1,0,0,1,0,.15,0.24,0.24,0,0,0,0,.11A8.45,8.45,0,0,0,46,64.59l0,0-0.06-.1c-0.13,0-.15,0-0.2-0.05l-0.56-.87a2.87,2.87,0,0,0,.43-0.25s0.88,0.52.88,0.52l0.15,0.1h0a0.11,0.11,0,0,1-.06.07h0a0.25,0.25,0,0,0,0,.1,8.9,8.9,0,0,0,.77-0.46,0.2,0.2,0,0,0,0-.11A0.44,0.44,0,0,1,47,63.45Zm-1.58-.67-0.56.36h0a6.75,6.75,0,0,0-.38-0.65L45,62.14a0.38,0.38,0,0,1,.6.06l0.07,0.27A0.53,0.53,0,0,1,45.42,62.78Zm7.38-2.59a0.25,0.25,0,0,0-.1,0,0.35,0.35,0,0,0,0,.14l0,0.2a0.74,0.74,0,0,1-.42.33,0.78,0.78,0,0,1-.6-0.06,1.1,1.1,0,0,1-.5-0.67,1.19,1.19,0,0,1,0-.9,0.8,0.8,0,0,1,.52-0.38,0.51,0.51,0,0,1,.63.19v0l0,0.06h0.06a8.27,8.27,0,0,0,.2-0.81l0-.09-0.11,0-0.09.08-0.13,0-0.15,0a1.26,1.26,0,0,0-.63,0,1.48,1.48,0,0,0-1,2,1.44,1.44,0,0,0,1.83,1.08,1.33,1.33,0,0,0,.8-0.59l0.1-.11a0.12,0.12,0,0,1,.09,0,0.15,0.15,0,0,0,.07-0.08S52.8,60.19,52.8,60.19ZM56,60.32l-0.06-.09-0.57-.81,0,0a0.76,0.76,0,0,0,.5-0.92,0.91,0.91,0,0,0-1.17-.73l-1.44.21a0.21,0.21,0,0,0,0,.12c0.13,0,.15,0,0.16.13l0.36,2.57a0.1,0.1,0,0,1-.09.13,0.25,0.25,0,0,0,0,.11,8.49,8.49,0,0,0,.88-0.09h0V60.81c-0.13,0-.15-0.05-0.16-0.13l-0.15-1a2.79,2.79,0,0,0,.5,0h0s0.58,0.84.58,0.84l0.09,0.15h0s0,0-.08.05a0.15,0.15,0,0,0,0,.07,0.23,0.23,0,0,0,0,0,8.55,8.55,0,0,0,.89-0.09,0.2,0.2,0,0,0,0-.12A0.44,0.44,0,0,1,56,60.32Zm-0.79-1.44a0.52,0.52,0,0,1-.37.17l-0.66.09a0,0,0,0,0,0,0c0-.13-0.07-0.63-0.08-0.72l0.63-.09a0.38,0.38,0,0,1,.52.31Zm3.46,1.24H57.3l0-.78H58c0.14,0,.16,0,0.17.07l0.11,0,0-.72-0.11,0a0.16,0.16,0,0,1-.2.11H57.3l0-.73,1.23,0c0.14,0,.15,0,0.16.07l0.11,0,0-.72-0.11,0a0.16,0.16,0,0,1-.2.1h-2l0,0.11c0.2,0,.2.08,0.2,0.15v2.6c0,0.08,0,.1-0.16.12l0,0.11,2.14,0c0.14,0,.15,0,0.17.08l0.11,0,0-.73-0.11,0A0.16,0.16,0,0,1,58.64,60.11Zm2.66-1.34s0.56-.66.56-0.66l0,0h0L61.78,58a0.13,0.13,0,0,1-.12,0L61.53,58l-0.15-.09a1.9,1.9,0,0,0-.69-0.22,1,1,0,0,0-1.24.76,1.08,1.08,0,0,0,1,1c0.37,0.14.69,0.25,0.65,0.5L61,60.25a0.84,0.84,0,0,1-.6.08A1.22,1.22,0,0,1,59.67,60l0-.12V59.82l-0.08,0a7.71,7.71,0,0,0-.49.68l0,0,0.08,0.06a0.48,0.48,0,0,0,.13-0.06l0.16,0.08,0.16,0.09,0.68,0.22a1.48,1.48,0,0,0,1.13-.23,0.88,0.88,0,0,0,.35-0.58,1.12,1.12,0,0,0-1-1.13c-0.35-.13-0.64-0.24-0.61-0.47l0.11-.2a0.48,0.48,0,0,1,.36-0.06,0.9,0.9,0,0,1,.61.28l0,0.12,0,0.1A0.33,0.33,0,0,0,61.3,58.77Zm2.91,2.61a0.15,0.15,0,0,0,.11,0S64,60.58,64,60.58a0.23,0.23,0,0,0-.1,0,0.36,0.36,0,0,0,0,.15l-0.14.15a0.71,0.71,0,0,1-.53.05,0.9,0.9,0,0,1-.54-1.2A1.19,1.19,0,0,1,63.16,59a0.81,0.81,0,0,1,.63,0,0.67,0.67,0,0,1,.4.29l0,0.22v0.08l0,0A8.06,8.06,0,0,0,64.86,59l0.06-.07-0.11,0-0.12,0L64.6,58.8l-0.11-.12a1.24,1.24,0,0,0-.55-0.31,1.46,1.46,0,0,0-1.13.12,1.66,1.66,0,0,0-.75,1.05,1.44,1.44,0,0,0,1,1.89,1.33,1.33,0,0,0,1-.07l0.14,0A0.11,0.11,0,0,1,64.21,61.39Zm2.45,1.1,0.18-2.63,0-.16s0-.06.11,0A0.21,0.21,0,0,0,67,59.57s-0.91-.42-0.91-0.42a0.2,0.2,0,0,0-.07.09,0.22,0.22,0,0,1,.09.11h0L66,59.51l-1.76,2a0.14,0.14,0,0,1-.13.07,0.21,0.21,0,0,0-.07.09,7.25,7.25,0,0,0,.72.34h0l0-.1a0.17,0.17,0,0,1-.08-0.12,0.07,0.07,0,0,1,0,0l0.06-.08,0.34-.38s0.92,0.41.93,0.42a5.23,5.23,0,0,0-.05.54l0,0.09s0,0-.08,0a0.23,0.23,0,0,0-.07.09,7.41,7.41,0,0,0,.75.35,0.21,0.21,0,0,0,.07-0.09A0.19,0.19,0,0,1,66.66,62.48ZM66.29,60c-0.05.23-.14,1.15-0.15,1.19h0a5.47,5.47,0,0,0-.61-0.29L66.29,60v0Zm3.24,4.23L70.94,62s0.06-.06.13,0a0.22,0.22,0,0,0,.09-0.08s-0.88-.58-0.88-0.58a0.2,0.2,0,0,0-.09.08,0.23,0.23,0,0,1,0,.1,0.05,0.05,0,0,1,0,0s-0.33.25-.66,0.48l-0.81.58v0c0.06-.17.15-0.68,0.15-0.68,0.07-.42.16-1,0.19-1s0,0,.09,0a0.28,0.28,0,0,0,.08-0.08s-0.88-.59-0.88-0.59a0.19,0.19,0,0,0-.09.08c0.07,0.09.06,0.12,0,.16l-1.41,2.26a0.07,0.07,0,0,1-.12,0,0.21,0.21,0,0,0-.09.08,7.57,7.57,0,0,0,.68.46l0,0,0.06-.09A0.22,0.22,0,0,1,67.4,63a0.09,0.09,0,0,1,0,0l1.1-1.77v0.06c-0.1.34-.33,1.49-0.33,1.49L68,63.57a0.3,0.3,0,0,0,.09.08s0.8-.55.8-0.55l1.23-.92,0,0.08c-0.27.38-1.09,1.68-1.09,1.68s0,0.06-.14,0a0.22,0.22,0,0,0-.09.08,7.93,7.93,0,0,0,.7.48,0.21,0.21,0,0,0,.09-0.08C69.49,64.33,69.5,64.3,69.52,64.26Zm3.65,1.88a0.16,0.16,0,0,1-.24,0l-1.07-.7s1.29-1.91,1.29-1.91,0.06-.08.21,0a0.21,0.21,0,0,0,.09-0.08s-0.81-.57-0.81-0.57a0.21,0.21,0,0,0-.09.08c0.12,0.13.11,0.16,0.06,0.22l-1.42,2.17c0,0.06-.06.08-0.18,0a0.23,0.23,0,0,0-.09.08s1.7,1.15,1.7,1.15,0.12,0.1.09,0.16a0.24,0.24,0,0,0,.08.08,6.44,6.44,0,0,0,.45-0.62A0.21,0.21,0,0,0,73.17,66.14Zm2.1-1.46c0.1,0.09.09,0.11,0.09,0.12l-0.12.14-1.84,1.9a0.15,0.15,0,0,1-.14.07,0.21,0.21,0,0,0-.07.09,7,7,0,0,0,.71.37h0l0-.1a0.19,0.19,0,0,1-.08-0.12,0.08,0.08,0,0,1,0,0L74,67l0.35-.37s0.91,0.45.91,0.45a5,5,0,0,0-.08.54l0,0.09s0,0-.09,0a0.24,0.24,0,0,0-.07.09,7.37,7.37,0,0,0,.73.38,0.2,0.2,0,0,0,.08-0.09,0.19,0.19,0,0,1,0-.19L76,65.39l0-.24s0-.05.11,0A0.21,0.21,0,0,0,76.24,65s-0.9-.45-0.9-0.45A0.21,0.21,0,0,0,75.27,64.68Zm0.19,0.8c-0.06.23-.19,1.15-0.19,1.19h0a5.29,5.29,0,0,0-.6-0.32l0.82-.89v0Zm3.26,0.43c0.11,0.08.12,0.1,0.1,0.18l-0.41,1.67a0.57,0.57,0,0,1-.75.45,0.62,0.62,0,0,1-.41-0.27,0.63,0.63,0,0,1,0-.49l0.41-1.67c0-.08,0-0.1.14-0.09a0.24,0.24,0,0,0,.05-0.1,9.16,9.16,0,0,0-.88-0.25h0v0l0,0.08C77,65.53,77,65.56,77,65.63l-0.41,1.66a1.08,1.08,0,0,0,.92,1.45,1.29,1.29,0,0,0,1-.08,1.18,1.18,0,0,0,.5-0.77l0.41-1.66c0-.07,0-0.1.15-0.09a0.22,0.22,0,0,0,.05-0.1,8,8,0,0,0-.82-0.24A0.21,0.21,0,0,0,78.72,65.9ZM81.06,66H79.78a0.2,0.2,0,0,0,0,.11c0.13,0,.14.07,0.14,0.15v2.6c0,0.08,0,.1-0.12.12l0,0.11s1.2,0,1.2,0a1.39,1.39,0,0,0,1.56-1.55A1.38,1.38,0,0,0,81.06,66Zm0.79,1.57a0.83,0.83,0,0,1-1,1H80.49s0-1.85,0-2h0.3a0.83,0.83,0,0,1,1,1h0Zm3.71,0.23a0.2,0.2,0,0,0-.12,0,0.16,0.16,0,0,1-.16.15L84,68.31h0c0-.09-0.15-0.66-0.17-0.75l0.69-.18c0.13,0,.16,0,0.18,0a0.24,0.24,0,0,0,.12,0,5.78,5.78,0,0,0-.15-0.7,0.2,0.2,0,0,0-.12,0,0.16,0.16,0,0,1-.16.15L83.64,67h0c0-.09-0.15-0.69-0.15-0.7s1.2-.28,1.2-0.28,0.15,0,.18,0a0.24,0.24,0,0,0,.12,0,5.74,5.74,0,0,0-.15-0.7,0.2,0.2,0,0,0-.12,0,0.16,0.16,0,0,1-.16.15l-2,.51a0.2,0.2,0,0,0,0,.12c0.2,0,.21,0,0.23.09l0.65,2.52c0,0.07,0,.1-0.12.16a0.23,0.23,0,0,0,0,.12s2.08-.51,2.08-0.51,0.15,0,.18,0a0.24,0.24,0,0,0,.12,0A5.93,5.93,0,0,0,85.55,67.83Zm-35.8-5.74-1.87-1.76-0.17-.17s0-.06,0-0.1a0.22,0.22,0,0,0,0-.11s-0.91.44-.91,0.44a0.19,0.19,0,0,0,0,.11c0.13,0,.14,0,0.14,0l0,0.18,0.41,2.62a0.14,0.14,0,0,1,0,.15,0.22,0.22,0,0,0,0,.12,7,7,0,0,0,.73-0.35h0l-0.05-.1c-0.1,0-.14,0-0.17,0L48,63l-0.09-.51s0.9-.45.91-0.46a5.32,5.32,0,0,0,.38.38l0.06,0.07h0a0.1,0.1,0,0,1-.06.06v0a0.27,0.27,0,0,0,0,.1A7.36,7.36,0,0,0,50,62.28a0.2,0.2,0,0,0,0-.12A0.19,0.19,0,0,1,49.76,62.09Zm-1.33-.38a5.32,5.32,0,0,0-.61.28L47.59,60.8l0,0c0.14,0.18.8,0.84,0.83,0.87h0Z" transform="translate(0 0)"/><path class="b" d="M41.89,35.09l-1.14-.41,0.59,1.11-1.08.76,1.22,0.27-0.09,1.24,1-.84,0.93,0.84-0.06-1.29,1.28-.11-1.07-.82,0.61-1.1-1.25.37-0.47-1.19Z" transform="translate(0 0)"/><path class="b" d="M49.22,37l-1.14-.38,0.59,1.1-1.08.75,1.25,0.27L48.72,40l1-.84,1,0.84-0.08-1.29,1.28-.11-1.05-.81,0.59-1.11L50.17,37l-0.46-1.16Z" transform="translate(0 0)"/><polygon class="b" points="41.01 43.29 41.47 44.46 42.72 44.11 42.12 45.2 43.17 46.02 41.89 46.12 41.95 47.43 41.03 46.58 40.02 47.43 40.13 46.19 38.91 45.91 39.98 45.16 39.4 44.08 40.54 44.46 41.01 43.29"/><polygon class="b" points="49.68 43.84 50.05 44.92 51.17 44.92 50.26 45.62 50.61 46.73 49.68 46.06 48.75 46.73 49.08 45.62 48.17 44.94 49.27 44.92 49.68 43.84"/><path class="b" d="M49.18,52.6L48,52.2l0.58,1.1L47.53,54l1.23,0.27-0.09,1.25,1-.86,0.94,0.87L50.52,54.3l1.29-.15-1.05-.82,0.59-1.08-1.23.35-0.46-1.19Z" transform="translate(0 0)"/><path class="b" d="M47,29.4a2.28,2.28,0,0,0-1.13.71,3.68,3.68,0,0,0,1.2-.34A0.4,0.4,0,0,0,47,29.4Z" transform="translate(0 0)"/><path class="b" d="M47.44,29.6A1.18,1.18,0,0,0,48,30.76l0.07-.36A1.35,1.35,0,0,0,47.44,29.6Z" transform="translate(0 0)"/><path class="b" d="M47.24,30.5a1,1,0,0,0-.12.45c0.05,0.26.47,0.36,0.6,0.76A1,1,0,0,0,47.24,30.5Z" transform="translate(0 0)"/><path class="b" d="M46.94,31.27l-0.18.32c-0.3.46,0.25,0.83,0.25,1.12a1.22,1.22,0,0,0,.25-1A0.79,0.79,0,0,0,46.94,31.27Z" transform="translate(0 0)"/><path class="b" d="M45.82,31.35a2.78,2.78,0,0,1-.94.37,1.8,1.8,0,0,0,.86.15,1,1,0,0,0,.74-0.63Z" transform="translate(0 0)"/><path class="b" d="M46.35,32.16c-0.66.16-.24,0.94-0.81,1.39a0.83,0.83,0,0,0,.8-0.54A1,1,0,0,0,46.35,32.16Z" transform="translate(0 0)"/><path class="b" d="M41.18,30.68a0.83,0.83,0,0,0,.23.93c-0.12-.71.72-1,0.34-1.58A1,1,0,0,0,41.18,30.68Z" transform="translate(0 0)"/><path class="b" d="M44,32.65a1.07,1.07,0,0,0,.95,0,1.26,1.26,0,0,0,.69-0.4C44.49,32,44.9,32.4,44,32.65Z" transform="translate(0 0)"/><path class="b" d="M45.35,31a1.08,1.08,0,0,0,.94-0.18,1.28,1.28,0,0,0,.61-0.52C45.72,30.24,46.19,30.59,45.35,31Z" transform="translate(0 0)"/><path class="b" d="M41.55,29.46a1.28,1.28,0,0,0-.76.25,1.07,1.07,0,0,0-.64.7C40.94,29.91,41,30.49,41.55,29.46Z" transform="translate(0 0)"/><path class="b" d="M43.12,27.47c0.4,0.11.58,0.35,0.84,0.38a0.44,0.44,0,0,0,.48-0.19C44.32,27.27,43.53,27.31,43.12,27.47Z" transform="translate(0 0)"/><path class="b" d="M45,29.23c0-.41.13-0.66,0.08-0.92a0.43,0.43,0,0,0-.34-0.39C44.37,28.17,44.67,28.9,45,29.23Z" transform="translate(0 0)"/><path class="b" d="M43.07,27.8a1.45,1.45,0,0,0-1.09.28c0.42,0,.69.43,1.2,0.22l0.33-.17A0.79,0.79,0,0,0,43.07,27.8Z" transform="translate(0 0)"/><path class="b" d="M43.72,28.63A1.44,1.44,0,0,0,44,29.72c-0.06-.42.41-0.71,0.19-1.21L44,28.19A0.79,0.79,0,0,0,43.72,28.63Z" transform="translate(0 0)"/><path class="b" d="M45.38,33L45,33c-0.54.08-.53,0.62-0.92,0.8a1.43,1.43,0,0,0,1.08-.31A0.78,0.78,0,0,0,45.38,33Z" transform="translate(0 0)"/><path class="b" d="M41.66,28.51a0.83,0.83,0,0,0-.65.71c0.53-.49,1.24,0,1.49-0.6A1,1,0,0,0,41.66,28.51Z" transform="translate(0 0)"/><path class="b" d="M42.8,29.47a0.83,0.83,0,0,0,.52.81c-0.34-.63.35-1.19-0.2-1.6A1,1,0,0,0,42.8,29.47Z" transform="translate(0 0)"/><path class="b" d="M42.19,29.42a2.28,2.28,0,0,0,.29,1.6,1.42,1.42,0,0,0,0-1.19A0.59,0.59,0,0,0,42.19,29.42Z" transform="translate(0 0)"/></svg>